<svg xmlns="http://www.w3.org/2000/svg" width="280" height="230" viewBox="0 0 56 46">
  <defs>
    <style>
      .cls-1 {
        fill: #fff;
        fill-rule: evenodd;
      }
    </style>
  </defs>
  <path id="sun_big_cloud" data-name="sun, big cloud" class="cls-1" d="M261,369v-3h7v3h-7Zm-5.015-12.107,4.95-4.949,2.121,2.121-4.949,4.95Zm-2.173,18.982a12.006,12.006,0,0,0-2.383-2,7.494,7.494,0,1,0-10.312-10.3,16.836,16.836,0,0,0-2.878-1.023A10.5,10.5,0,1,1,253.812,375.875ZM246,347h3v7h-3v-7Zm-14.056,7.065,2.121-2.121,4.95,4.949-2.122,2.122Zm15.561,21.3A9,9,0,0,1,245,393H222a9.994,9.994,0,0,1-.65-19.967A13.98,13.98,0,0,1,247.505,375.361Zm-24.116.778A7,7,0,1,0,222,390h23a6,6,0,0,0,0-12c-0.017,0-.033,0-0.05,0A10.991,10.991,0,0,0,223.389,376.139Zm39.667,4.8-2.121,2.121-4.95-4.949,2.122-2.122Z" transform="translate(-212 -347)"/>
</svg>
