<svg xmlns="http://www.w3.org/2000/svg" width="260" height="215" viewBox="0 0 52 43">
  <defs>
    <style>
      .cls-1 {
        fill: #fff;
        fill-rule: evenodd;
      }
    </style>
  </defs>
  <path id="rain_cloud" data-name="rain cloud" class="cls-1" d="M886,384h-1v-3h1a7,7,0,1,0-1.121-13.9,13.35,13.35,0,0,0,.121-1.6,13.5,13.5,0,0,0-27,0c0,0.03,0,.059,0,0.089A8,8,0,1,0,855,381v3a11,11,0,0,1,0-22c0.127,0,.25.015,0.375,0.019a16.49,16.49,0,0,1,32.559,2.172A10,10,0,0,1,886,384Zm-25-4h-3v-6h3v6Zm0,9h-3v-6h3v6Zm7-6h-3v-6h3v6Zm0,9h-3v-6h3v6Zm7-12h-3v-6h3v6Zm0,9h-3v-6h3v6Zm7-6h-3v-6h3v6Zm0,9h-3v-6h3v6Z" transform="translate(-844 -349)"/>
</svg>
