<svg xmlns="http://www.w3.org/2000/svg" width="280" height="275" viewBox="0 0 56 55">
  <defs>
    <style>
      .cls-1 {
        fill: #fff;
        fill-rule: evenodd;
      }
    </style>
  </defs>
  <path id="sun_shower" data-name="sun, shower" class="cls-1" d="M711,363v-3h7v3h-7Zm-5.015-12.106,4.95-4.95,2.121,2.121-4.949,4.95Zm-2.173,18.981a12.006,12.006,0,0,0-2.383-2,7.494,7.494,0,1,0-10.312-10.3,16.836,16.836,0,0,0-2.878-1.023A10.5,10.5,0,1,1,703.812,369.875ZM696,341h3v7h-3v-7Zm-14.056,7.065,2.121-2.121,4.95,4.95-2.122,2.121Zm15.561,21.3a8.994,8.994,0,0,1-1.484,17.577l1.116-3.348A5.99,5.99,0,0,0,695,372c-0.017,0-.033,0-0.05,0a10.991,10.991,0,0,0-21.561-1.866A7,7,0,0,0,665,377a6.987,6.987,0,0,0,2.536,5.392l-0.994,2.981a9.988,9.988,0,0,1,4.808-18.34A13.98,13.98,0,0,1,697.505,369.361ZM675,378l-5,15h-3l5-15h3Zm6,3-5,15h-3l5-15h3Zm8-3-5,15h-3l5-15h3Zm6,3-5,15h-3l5-15h3Zm18.056-6.065-2.121,2.121-4.95-4.949,2.122-2.122Z" transform="translate(-662 -341)"/>
</svg>
