<svg xmlns="http://www.w3.org/2000/svg" width="260" height="215" viewBox="0 0 52 43">
  <defs>
    <style>
      .cls-1 {
        fill: #fff;
        fill-rule: evenodd;
      }
    </style>
  </defs>
  <path id="cloud_snow" data-name="cloud, snow" class="cls-1" d="M796,564v-3a7,7,0,1,0-1.105-13.9A13.5,13.5,0,1,0,768,545.5c0,0.03,0,.059,0,0.089A8,8,0,1,0,765,561v3a11,11,0,0,1,0-22c0.127,0,.25.015,0.375,0.019a16.49,16.49,0,0,1,32.559,2.172A10,10,0,0,1,796,564Zm-30-3h-1a8.028,8.028,0,0,0,1-.08V561Zm4-6,2-2,5,5h2v-2l-5-5,2-2,3,4v-6h3v6l3-4,2,2-5,5v2h2l5-5,2,2-4,3h6v3h-6l4,3-2,2-5-5h-2v2l5,5-2,2-3-4v6h-3v-6l-3,4-2-2,5-5v-2h-2l-5,5-2-2,4-3h-6v-3h6Z" transform="translate(-754 -529)"/>
</svg>
