<?xml version="1.0" standalone="no"?>
<!DOCTYPE svg PUBLIC "-//W3C//DTD SVG 20010904//EN"
 "http://www.w3.org/TR/2001/REC-SVG-20010904/DTD/svg10.dtd">
<svg version="1.0" xmlns="http://www.w3.org/2000/svg"
 width="512.000000pt" height="512.000000pt" viewBox="0 0 512.000000 512.000000"
 preserveAspectRatio="xMidYMid meet">
<metadata>
Created by potrace 1.11, written by Peter Selinger 2001-2013
</metadata>
<g transform="translate(0.000000,512.000000) scale(0.100000,-0.100000)"
fill="#000000" stroke="none">
<path d="M1961 4297 c-13 -6 -34 -25 -45 -40 -20 -27 -21 -42 -22 -245 -1
-230 2 -246 48 -290 59 -54 129 -45 171 21 l27 44 0 219 c0 200 -2 222 -19
248 -11 16 -30 35 -43 42 -29 17 -86 17 -117 1z"/>
<path d="M965 3872 c-73 -24 -105 -91 -80 -167 7 -22 293 -302 329 -322 29
-17 81 -16 117 3 52 26 74 107 45 163 -19 35 -298 302 -334 318 -30 13 -47 14
-77 5z"/>
<path d="M2995 3864 c-16 -8 -100 -86 -185 -172 -173 -175 -180 -189 -139
-262 32 -57 95 -75 162 -46 29 12 265 237 315 301 44 56 18 146 -51 178 -43
21 -64 21 -102 1z"/>
<path d="M1955 3482 c-129 -12 -262 -58 -360 -125 -119 -81 -232 -230 -279
-369 -25 -76 -28 -97 -32 -218 -3 -134 19 -240 75 -350 45 -89 133 -195 196
-236 24 -15 27 -15 77 18 29 18 66 40 82 48 54 27 80 62 82 110 7 118 52 278
113 399 29 57 110 180 138 211 125 135 266 245 386 300 26 12 47 26 47 30 0
11 -65 61 -120 92 -109 62 -287 101 -405 90z"/>
<path d="M2850 3153 c-422 -35 -755 -336 -821 -743 -15 -97 -11 -272 8 -302 2
-5 1 -8 -4 -9 -156 -16 -322 -109 -430 -242 -25 -31 -74 -141 -90 -200 -14
-57 -25 -247 -13 -247 3 0 11 -23 18 -52 19 -81 78 -185 142 -248 74 -75 156
-124 265 -161 l70 -24 980 0 c908 0 985 1 1045 18 76 20 201 78 247 113 17 13
35 24 40 24 15 0 149 150 181 204 36 59 89 183 97 225 2 14 8 46 13 71 8 44 8
200 -1 250 -33 190 -145 368 -302 482 -121 87 -265 134 -435 143 -57 3 -106 7
-108 10 -2 2 -17 42 -33 89 -101 291 -325 496 -629 576 -36 9 -94 18 -130 19
-35 1 -67 3 -70 5 -3 1 -21 0 -40 -1z"/>
<path d="M528 2847 c-61 -42 -75 -109 -35 -168 37 -55 51 -57 278 -59 229 -1
263 6 295 56 24 36 23 114 -3 144 -36 44 -57 47 -285 48 -208 1 -218 0 -250
-21z"/>
<path d="M1234 2104 c-39 -21 -330 -314 -339 -343 -21 -68 41 -151 115 -151
21 0 51 6 66 12 35 16 313 295 325 326 20 53 1 113 -48 147 -30 21 -87 25
-119 9z"/>
</g>
</svg>
